<svg version="1.1" xmlns="http://www.w3.org/2000/svg" xmlns:xlink="http://www.w3.org/1999/xlink" width="99.11029" height="99.55283" viewBox="0,0,99.11029,99.55283"><g transform="translate(-191.54938,-127.50077)"><g data-paper-data="{&quot;isPaintingLayer&quot;:true}" fill-rule="evenodd" stroke-miterlimit="10" stroke-dasharray="" stroke-dashoffset="0" style="mix-blend-mode: normal"><path d="M222.45,199.3c0.6,0.8 3.3,2 -0.2,4.2c-3.6,2.1 -9.13457,0.2461 -18.03457,-7.6539c-9.6,-8.6 -14.89916,-19.70576 -10.49916,-20.10576c4.3,-0.4 13.5934,6.6 16.6934,14.4c4.4,11.3 11.44034,8.35966 12.04034,9.15966z" fill="#ffab19" stroke="#001026" stroke-width="1.2" stroke-linecap="round" stroke-linejoin="round"/><path d="M198.87923,177.3928c3.573,2.61604 6.15894,5.69798 6.15894,5.69798c0,0 -3.14914,-1.07152 -4.48253,0.96369c-1.59892,2.47052 -0.44521,5.65075 0.00148,6.1989c-1.72414,-0.63823 -2.48599,-2.80967 -4.99635,-5.39774c-2.23344,-2.74076 -4.279,-7.69017 -2.28981,-9.25642c1.65015,-1.19875 3.35257,0.25678 5.60828,1.79359z" fill="#ffffff" stroke="none" stroke-width="1" stroke-linecap="butt" stroke-linejoin="miter"/><path d="M233.71235,200.49953c-0.11706,1.13415 0.04032,5.16221 -2.44213,10.2492c-1.68682,3.52911 -10.75042,5.06246 -10.75042,5.06246c5.63624,7.32686 -0.83128,11.12964 -3.60775,9.32653c-2.20421,-1.45309 -7.49004,-10.2956 -6.0477,-12.13941c2.24833,-2.81869 7.20942,-3.55869 10.68709,-5.73028c1.01785,-0.63559 0.74342,-3.52949 1.63537,-7.38753c0.63711,-2.75574 0.88273,-7.27123 5.82233,-7.29044c4.27177,0.04412 4.88473,4.61296 4.7032,7.90948z" fill="#ffab19" stroke="#001026" stroke-width="1.2" stroke-linecap="round" stroke-linejoin="round"/><path d="M241.37881,188.5c0.3,2.2 7.92797,-1.87899 10.32797,-0.57899c2.3,1.2 24.75018,-6.14814 25.15018,-1.24814c0.4,4.8 -27.19544,9.95102 -32.59544,8.45102c-7,-1.9 -11.98271,0.17611 -7.98271,-6.42389c1.5,-2.3 4.8,-2.5 5.1,-0.2z" fill="#ffab19" stroke="#001026" stroke-width="1.2" stroke-linecap="round" stroke-linejoin="round"/><g><path d="M248.2028,205.85159c1.94865,2.72998 0.80102,11.56021 0.80102,11.56021c0,0 7.17494,1.15333 5.52622,6.57198c-1.21261,3.99745 -4.268,2.67285 -13.8971,-0.64083c-1.4638,-0.52659 -2.14541,-1.97414 -1.79976,-3.35274c0.8775,-3.06594 1.84505,-8.05331 -0.7738,-8.92027c-3.38523,-0.61663 -7.13234,-1.06286 -9.45299,-1.29651c-9.46353,-0.84942 -6.54863,-8.74331 -6.01323,-18.16951c0.25431,-5.09366 1.85118,-4.5192 7.79071,-5.98956c3.28905,-0.99605 5.2263,-1.57665 7.17408,-2.60433c2.94298,-1.49629 4.44497,3.10198 4.69573,5.74718c0,0 0.30961,3.94387 -0.05712,6.21665c-0.42514,2.85294 -1.03123,5.79108 -1.73349,7.11653c0,0 5.7432,1.1643 7.73972,3.76121z" fill="#ffab19" stroke="#001026" stroke-width="1.2" stroke-linecap="round" stroke-linejoin="round"/><path d="M239.72363,202.33124c0,0 -1.86829,-0.44666 -3.95485,-1.12213c-2.57625,-0.77649 -5.0247,-1.28156 -4.53587,-4.93821c0.60609,-2.93814 0.7809,-6.55745 6.08756,-5.85078c5.04051,0.61093 4.38655,3.68214 4.38655,3.68214c-0.07337,5.00845 -1.98339,8.22898 -1.98339,8.22898z" fill="#ffffff" stroke="none" stroke-width="1" stroke-linecap="butt" stroke-linejoin="miter"/></g><path d="M226.55,191.7c-2.2,1 -6.3,-0.8 -7.4,-0.6c-0.3,0.1 -3.58559,-3.01933 -9.14238,-7.64442c-3.28271,-3.91933 -15.13374,-11.75595 -15.53374,-16.35595c-0.3,-4.3 14.29628,4.33578 15.59628,2.83578c2.9,-3.5 14.83903,13.27289 21.42613,15.02109" fill="#ffab19" stroke="#001026" stroke-width="1.2" stroke-linecap="round" stroke-linejoin="round"/><path d="M252.7,128c0.3,-0.2 0.8,-0.1 0.9,0.3l2.6,10.7c0,0 6.4,4.7 8.3,8c3.2,5.5 3.3,10 3.3,10c0,0 7.1,2.1 8.3,7.8c1.2,5.7 -3.2,16.5 -22,20.2c-18.8,3.7 -33.9,-1.4 -41,-12.8c-7.1,-11.4 4.1,-25 3.5,-24.2l-2.1,-17.9c-0.1,-0.4 0.4,-0.7 0.8,-0.5l12.1,7.9c0,0 4.5,-1.7 9.2,-1.9c2.8,-0.2 5.2,0 7.5,0.4z" fill="#ffab19" stroke="#001026" stroke-width="1.2" stroke-linecap="butt" stroke-linejoin="miter"/><path d="M267.5,157.4c0,0 6.9,1.8 8.1,7.5c1.2,5.7 -3.6,16 -22.2,19.6c-24.2,5 -35.7,-9.4 -29,-20c6.7,-10.7 18.2,-1.6 26.6,-2.2c7.2,-0.5 8,-6.8 16.5,-4.9z" fill="#ffffff" stroke="none" stroke-width="1" stroke-linecap="butt" stroke-linejoin="miter"/><path d="M236,168.1c0,-0.4 0.4,-0.7 0.8,-0.6c1.9,0.7 7.3,2.3 13.3,2.7c5.4,0.3 8.6,0 10.1,-0.3c0.5,-0.1 0.9,0.4 0.7,0.9c-0.9,2.7 -4.7,10.2 -15.2,9.6c-9.1,-1 -10,-7.4 -9.7,-12.3z" fill="#ffffff" stroke="#001026" stroke-width="1.2" stroke-linecap="round" stroke-linejoin="round"/><path d="M290.05966,158.79712c-6.26488,3.8 -17.84238,3.60288 -17.84238,3.60288" fill="none" stroke="#001026" stroke-width="1.2" stroke-linecap="round" stroke-linejoin="round"/><path d="M284.6,169.7c-6.3,0.5 -10.2,-1.4 -10.2,-1.4" fill="none" stroke="#001026" stroke-width="1.2" stroke-linecap="round" stroke-linejoin="round"/><path d="M250.6,159.7c2.1,0 4.3,0.2 4.4,0.9c0.1,1.4 -1.4,4.2 -3,4.3c-1.8,0.2 -6,-2.3 -6,-3.9c-0.1,-1.2 2.6,-1.3 4.6,-1.3z" fill="#001026" stroke="#001026" stroke-width="1.2" stroke-linecap="round" stroke-linejoin="round"/><path d="M205.6,158.2c0,0 8.6,2.8 12.1,5.9" fill="none" stroke="#001026" stroke-width="1.2" stroke-linecap="round" stroke-linejoin="round"/><path d="M218,167.6c-4.3,1.7 -11.7,0.6 -11.7,0.6" fill="none" stroke="#001026" stroke-width="1.2" stroke-linecap="round" stroke-linejoin="round"/><path d="M262.4,148c2.9,4.5 3,9.6 0.2,11.4c-2.8,1.8 -7.4,-0.3 -10.4,-4.8c-2.9,-4.5 -3,-9.6 -0.2,-11.4c2.8,-1.9 7.5,0.3 10.4,4.8z" fill="#ffffff" stroke="#001026" stroke-width="1.2" stroke-linecap="round" stroke-linejoin="round"/><path d="M262,153.7c0,1.1 -0.8,2 -1.8,2c-1,0 -1.8,-0.9 -1.8,-2c0,-1.1 0.8,-2 1.8,-2c1,0 1.8,0.9 1.8,2" fill="#001026" stroke="none" stroke-width="1" stroke-linecap="butt" stroke-linejoin="miter"/><path d="M237.6,150.8c3,4.4 2.8,9.8 0.1,11.7c-3.3,1.9 -7.7,0.5 -10.7,-3.9c-3.1,-4.4 -3.3,-10.1 -0.2,-12.3c3.1,-2.3 7.8,0.1 10.8,4.5z" fill="#ffffff" stroke="#001026" stroke-width="1.2" stroke-linecap="round" stroke-linejoin="round"/><path d="M237,156.6c0,1.1 -0.8,2 -1.8,2c-1,0 -1.8,-0.9 -1.8,-2c0,-1.1 0.8,-2 1.8,-2c1,0.1 1.8,0.9 1.8,2" fill="#001026" stroke="none" stroke-width="1" stroke-linecap="butt" stroke-linejoin="miter"/></g></g></svg>