<svg version="1.1" xmlns="http://www.w3.org/2000/svg" xmlns:xlink="http://www.w3.org/1999/xlink" width="95.62606" height="99.55283" viewBox="0,0,95.62606,99.55283"><g transform="translate(-195.03361,-127.50077)"><g data-paper-data="{&quot;isPaintingLayer&quot;:true}" fill-rule="evenodd" stroke-miterlimit="10" stroke-dasharray="" stroke-dashoffset="0" style="mix-blend-mode: normal"><path d="M233.71235,200.49953c-0.11706,1.13415 0.04032,5.16221 -2.44213,10.2492c-1.68682,3.52911 -10.75042,5.06246 -10.75042,5.06246c5.63624,7.32686 -0.83128,11.12964 -3.60775,9.32653c-2.20421,-1.45309 -7.49004,-10.2956 -6.0477,-12.13941c2.24833,-2.81869 7.20942,-3.55869 10.68709,-5.73028c1.01785,-0.63559 0.74342,-3.52949 1.63537,-7.38753c0.63711,-2.75574 0.88273,-7.27123 5.82233,-7.29044c4.27177,0.04412 4.88473,4.61296 4.7032,7.90948z" fill="#ffab19" stroke="#001026" stroke-width="1.2" stroke-linecap="round" stroke-linejoin="round"/><path d="M243.4606,183.15096c-1.12901,1.91189 7.38458,3.44259 8.46111,5.95079c1.0601,2.36774 23.22874,10.52601 20.50375,14.618c-2.66298,4.01355 -27.50538,-9.05919 -30.81131,-13.58477c-4.31302,-5.83162 -9.50936,-7.29304 -2.27841,-9.98994c2.60308,-0.87405 5.31588,1.01558 4.12486,3.00592z" fill="#ffab19" stroke="#001026" stroke-width="1.2" stroke-linecap="round" stroke-linejoin="round"/><g><path d="M248.2028,205.85159c1.94865,2.72998 0.80102,11.56021 0.80102,11.56021c0,0 7.17494,1.15333 5.52622,6.57198c-1.21261,3.99745 -4.268,2.67285 -13.8971,-0.64083c-1.4638,-0.52659 -2.14541,-1.97414 -1.79976,-3.35274c0.8775,-3.06594 1.84505,-8.05331 -0.7738,-8.92027c-3.38523,-0.61663 -7.13234,-1.06286 -9.45299,-1.29651c-9.46353,-0.84942 -6.54863,-8.74331 -6.01323,-18.16951c0.25431,-5.09366 1.85118,-4.5192 7.79071,-5.98956c3.28905,-0.99605 5.2263,-1.57665 7.17408,-2.60433c2.94298,-1.49629 4.44497,3.10198 4.69573,5.74718c0,0 0.30961,3.94387 -0.05712,6.21665c-0.42514,2.85294 -1.03123,5.79108 -1.73349,7.11653c0,0 5.7432,1.1643 7.73972,3.76121z" fill="#ffab19" stroke="#001026" stroke-width="1.2" stroke-linecap="round" stroke-linejoin="round"/><path d="M239.72363,202.33124c0,0 -1.86829,-0.44666 -3.95485,-1.12213c-2.57625,-0.77649 -5.0247,-1.28156 -4.53587,-4.93821c0.60609,-2.93814 0.7809,-6.55745 6.08756,-5.85078c5.04051,0.61093 4.38655,3.68214 4.38655,3.68214c-0.07337,5.00845 -1.98339,8.22898 -1.98339,8.22898z" fill="#ffffff" stroke="none" stroke-width="1" stroke-linecap="butt" stroke-linejoin="miter"/></g><g><path d="M221.19795,193.17137c0.83513,-0.55006 2.19767,-3.17179 4.17996,0.45595c1.87638,3.72145 -0.31185,9.13256 -8.74029,17.53383c-9.16986,9.05724 -20.57833,13.66874 -20.70905,9.25253c-0.13682,-4.3164 7.41731,-13.16526 15.39196,-15.78345c11.54747,-3.70216 9.04229,-10.90882 9.87742,-11.45887z" fill="#ffab19" stroke="#001026" stroke-width="1.2" stroke-linecap="round" stroke-linejoin="round"/><path d="M197.62744,215.41332c2.90409,-3.34309 6.19039,-5.66379 6.19039,-5.66379c0,0 -1.32968,3.04913 0.58761,4.54714c2.329,1.79882 5.59415,0.91355 6.17755,0.514c-0.77939,1.6651 -3.00666,2.24375 -5.79452,4.5302c-2.91699,1.99779 -8.01936,3.6247 -9.41477,1.51217c-1.05739,-1.74411 0.53468,-3.3196 2.25373,-5.43971z" fill="#ffffff" stroke="none" stroke-width="1" stroke-linecap="butt" stroke-linejoin="miter"/></g><path d="M233.78003,185.94916c0.55245,2.35262 -2.0115,6.02361 -2.02953,7.1415c0.03967,0.31373 -3.65976,2.92899 -9.27839,7.47875c-4.48355,2.45665 -14.47792,12.55477 -19.06775,12.05134c-4.2761,-0.54309 7.03672,-13.17829 5.81858,-14.7455c-2.86828,-3.52605 15.90843,-11.97031 18.90588,-18.09088" fill="#ffab19" stroke="#001026" stroke-width="1.2" stroke-linecap="round" stroke-linejoin="round"/><path d="M252.7,128c0.3,-0.2 0.8,-0.1 0.9,0.3l2.6,10.7c0,0 6.4,4.7 8.3,8c3.2,5.5 3.3,10 3.3,10c0,0 7.1,2.1 8.3,7.8c1.2,5.7 -3.2,16.5 -22,20.2c-18.8,3.7 -33.9,-1.4 -41,-12.8c-7.1,-11.4 4.1,-25 3.5,-24.2l-2.1,-17.9c-0.1,-0.4 0.4,-0.7 0.8,-0.5l12.1,7.9c0,0 4.5,-1.7 9.2,-1.9c2.8,-0.2 5.2,0 7.5,0.4z" fill="#ffab19" stroke="#001026" stroke-width="1.2" stroke-linecap="butt" stroke-linejoin="miter"/><path d="M267.5,157.4c0,0 6.9,1.8 8.1,7.5c1.2,5.7 -3.6,16 -22.2,19.6c-24.2,5 -35.7,-9.4 -29,-20c6.7,-10.7 18.2,-1.6 26.6,-2.2c7.2,-0.5 8,-6.8 16.5,-4.9z" fill="#ffffff" stroke="none" stroke-width="1" stroke-linecap="butt" stroke-linejoin="miter"/><path d="M245.7,167.51464c10.5,-0.6 14.3,6.9 15.2,9.6c0.2,0.5 -0.2,1 -0.7,0.9c-1.5,-0.3 -4.7,-0.6 -10.1,-0.3c-6,0.4 -11.4,2 -13.3,2.7c-0.4,0.1 -0.8,-0.2 -0.8,-0.6c-0.3,-4.9 0.6,-11.3 9.7,-12.3z" data-paper-data="{&quot;index&quot;:null}" fill="#ffffff" stroke="#001026" stroke-width="1.2" stroke-linecap="round" stroke-linejoin="round"/><path d="M290.05966,158.79712c-6.26488,3.8 -17.84238,3.60288 -17.84238,3.60288" fill="none" stroke="#001026" stroke-width="1.2" stroke-linecap="round" stroke-linejoin="round"/><path d="M284.6,169.7c-6.3,0.5 -10.2,-1.4 -10.2,-1.4" fill="none" stroke="#001026" stroke-width="1.2" stroke-linecap="round" stroke-linejoin="round"/><path d="M250.6,159.7c2.1,0 4.3,0.2 4.4,0.9c0.1,1.4 -1.4,4.2 -3,4.3c-1.8,0.2 -6,-2.3 -6,-3.9c-0.1,-1.2 2.6,-1.3 4.6,-1.3z" fill="#001026" stroke="#001026" stroke-width="1.2" stroke-linecap="round" stroke-linejoin="round"/><path d="M205.6,158.2c0,0 8.6,2.8 12.1,5.9" fill="none" stroke="#001026" stroke-width="1.2" stroke-linecap="round" stroke-linejoin="round"/><path d="M218,167.6c-4.3,1.7 -11.7,0.6 -11.7,0.6" fill="none" stroke="#001026" stroke-width="1.2" stroke-linecap="round" stroke-linejoin="round"/><path d="M262.4,148c2.9,4.5 3,9.6 0.2,11.4c-2.8,1.8 -7.4,-0.3 -10.4,-4.8c-2.9,-4.5 -3,-9.6 -0.2,-11.4c2.8,-1.9 7.5,0.3 10.4,4.8z" fill="#ffffff" stroke="#001026" stroke-width="1.2" stroke-linecap="round" stroke-linejoin="round"/><path d="M262,153.7c0,1.1 -0.8,2 -1.8,2c-1,0 -1.8,-0.9 -1.8,-2c0,-1.1 0.8,-2 1.8,-2c1,0 1.8,0.9 1.8,2" fill="#001026" stroke="none" stroke-width="1" stroke-linecap="butt" stroke-linejoin="miter"/><path d="M237.6,150.8c3,4.4 2.8,9.8 0.1,11.7c-3.3,1.9 -7.7,0.5 -10.7,-3.9c-3.1,-4.4 -3.3,-10.1 -0.2,-12.3c3.1,-2.3 7.8,0.1 10.8,4.5z" fill="#ffffff" stroke="#001026" stroke-width="1.2" stroke-linecap="round" stroke-linejoin="round"/><path d="M237,156.6c0,1.1 -0.8,2 -1.8,2c-1,0 -1.8,-0.9 -1.8,-2c0,-1.1 0.8,-2 1.8,-2c1,0.1 1.8,0.9 1.8,2" fill="#001026" stroke="none" stroke-width="1" stroke-linecap="butt" stroke-linejoin="miter"/></g></g></svg>